<?xml version="1.0" standalone="no"?>
<!DOCTYPE svg PUBLIC "-//W3C//DTD SVG 20010904//EN"
 "http://www.w3.org/TR/2001/REC-SVG-20010904/DTD/svg10.dtd">
<svg version="1.0" xmlns="http://www.w3.org/2000/svg"
 width="100.000000pt" height="100.000000pt" viewBox="0 0 100.000000 100.000000"
 preserveAspectRatio="xMidYMid meet">

<g transform="translate(0.000000,100.000000) scale(0.100000,-0.100000)"
fill="#000000" stroke="none">
<path d="M406 890 c-63 -16 -153 -70 -197 -117 -22 -24 -55 -74 -72 -111 -29
-61 -32 -76 -32 -163 0 -90 2 -99 38 -171 44 -91 102 -146 197 -192 59 -28 74
-31 160 -31 86 0 101 3 162 32 93 44 151 100 196 191 35 72 37 81 37 172 0 91
-2 100 -37 172 -68 136 -188 217 -336 224 -42 2 -94 -1 -116 -6z m-1 -144 c27
-27 45 -83 45 -139 0 -28 -7 -45 -26 -64 l-27 -27 7 -126 c6 -111 5 -130 -9
-144 -21 -20 -39 -20 -55 -1 -9 11 -12 53 -11 150 1 88 -1 135 -8 135 -6 0
-18 14 -27 31 -26 51 -8 135 39 187 26 28 42 28 72 -2z m179 -12 c3 -9 6 -38
6 -65 0 -37 4 -49 15 -49 12 0 15 14 15 65 0 51 3 65 15 65 12 0 15 -14 15
-65 0 -51 3 -65 15 -65 12 0 15 14 15 65 0 59 2 65 21 65 20 0 21 -4 18 -84
-3 -71 -8 -88 -27 -109 -22 -23 -23 -31 -21 -157 1 -137 -2 -149 -42 -150 -35
0 -40 24 -33 154 l7 125 -27 31 c-23 28 -26 40 -26 111 0 61 3 79 14 79 8 0
17 -7 20 -16z"/>
</g>
</svg>
